<svg width="78" height="70" viewBox="0 0 78 70" fill="none" xmlns="http://www.w3.org/2000/svg">
<path d="M63.6724 41.0628C63.6724 45.7337 62.4377 50.1162 60.277 53.9017M63.6724 41.0628H11.798M63.6724 41.0628C63.6724 36.392 62.4377 32.0095 60.277 28.2239M37.7352 67C47.389 67 55.8111 61.7258 60.277 53.9017M37.7352 67C37.6441 67 37.5531 66.9995 37.4622 66.9986M37.7352 67C37.8273 67 37.919 66.9923 38.0103 66.9771C37.8283 66.9886 37.6456 66.9957 37.4622 66.9986M11.798 41.0628C11.798 45.7337 13.0327 50.1162 15.1934 53.9017M11.798 41.0628C11.798 36.392 13.0327 32.0095 15.1934 28.2239M37.7352 15.1257C35.8669 15.1257 34.0447 15.3232 32.2884 15.6985M37.7352 15.1257C39.6035 15.1257 41.4257 15.3232 43.182 15.6985M37.7352 15.1257C37.4197 15.1257 37.1057 15.1385 36.7935 15.1638M37.7352 15.1257C37.6516 15.1257 37.5683 15.132 37.4854 15.1445M44.2195 41.0628H54.4647M31.2509 41.0628H20.0979M32.2884 15.6985C32.2884 15.6985 31.8993 10.3273 32.2884 9.93822C32.4506 9.77598 34.3041 9.6814 36.4383 9.65447M32.2884 15.6985C24.9697 17.2626 18.795 21.914 15.1934 28.2239M32.2884 15.6985C34.0219 15.3991 35.4435 15.2217 36.7935 15.1638M43.182 15.6985C43.182 15.6985 43.5711 10.3272 43.182 9.93822C43.0165 9.77273 41.0907 9.67763 38.9024 9.65293M43.182 15.6985C50.5007 17.2626 56.6754 21.914 60.277 28.2239M43.182 15.6985C40.9636 15.309 39.2511 15.1222 37.4854 15.1445M36.4383 9.65447C36.8632 9.64911 37.2992 9.64643 37.7352 9.64643C38.1269 9.64644 38.5187 9.6486 38.9024 9.65293M36.4383 9.65447V4.49139C36.4383 3.81096 36.9899 3.25937 37.6703 3.25937C38.3508 3.25937 38.9024 3.81097 38.9024 4.49139V9.65293M15.1934 53.9017C19.4507 61.3602 27.3029 66.5016 36.3903 66.9657M15.1934 53.9017H22.3474H32.0997H43.3706H52.2152H60.277M15.1934 28.2239H22.4607H32.0997H43.3706H52.3285H60.277M36.3903 66.9657C36.6854 66.9885 36.9824 67 37.2813 67C37.3417 67 37.4019 66.9995 37.4622 66.9986M36.3903 66.9657C36.7457 66.9839 37.1031 66.9949 37.4622 66.9986M36.7935 15.1638C37.0258 15.1539 37.2561 15.1474 37.4854 15.1445M18.6714 14.0233C18.9307 14.0233 20.4221 10.5218 20.6167 10.3921C20.8112 10.2624 24.3127 8.77102 24.3127 8.64134C24.3127 8.51165 20.7463 6.89058 20.6167 6.82573C20.487 6.76089 19.0604 3 18.8011 3C18.5417 3 16.9206 6.69605 16.7909 6.76089C16.6612 6.82573 13.0949 8.44681 13.0949 8.57649C13.0949 8.70618 16.5964 10.1976 16.7909 10.3273C16.9855 10.4569 18.412 14.0233 18.6714 14.0233ZM9.29936 24.9839C9.55606 24.9467 10.5304 21.2677 10.7044 21.1115C10.8783 20.9553 14.1301 18.9776 14.1115 18.8493C14.0929 18.7209 10.3311 17.6275 10.1935 17.5819C10.0558 17.5363 8.1052 14.0186 7.84851 14.0557C7.59181 14.0929 6.51696 17.983 6.3979 18.0658C6.27884 18.1486 2.9815 20.2638 3.00008 20.3922C3.01866 20.5205 6.69771 21.4949 6.90882 21.5954C7.11992 21.6959 9.04267 25.0211 9.29936 24.9839ZM70.538 67.3035C70.7947 67.2663 71.7691 63.5872 71.943 63.431C72.117 63.2748 75.3687 61.2972 75.3502 61.1688C75.3316 61.0405 71.5698 59.947 71.4321 59.9015C71.2945 59.8559 69.3439 56.3381 69.0872 56.3753C68.8305 56.4124 67.7556 60.3026 67.6366 60.3854C67.5175 60.4681 64.2202 62.5834 64.2387 62.7117C64.2573 62.8401 67.9364 63.8145 68.1475 63.9149C68.3586 64.0154 70.2813 67.3406 70.538 67.3035ZM70.4774 22.3885C70.8038 22.2707 71.0909 17.1874 71.2768 16.9358C71.4628 16.6843 75.192 13.218 75.1331 13.0548C75.0743 12.8916 69.8504 12.4707 69.6578 12.4479C69.4652 12.4252 65.9626 8.3401 65.6362 8.45785C65.3099 8.5756 64.9478 13.9626 64.8141 14.1031C64.6803 14.2436 60.9283 17.9026 60.9872 18.0658C61.046 18.229 66.1294 18.5162 66.4331 18.591C66.7368 18.6659 70.151 22.5062 70.4774 22.3885Z" stroke="#0F3D76" stroke-width="5"/>
<rect x="13" y="40" width="14" height="12" fill="#0F3D76"/>
<path d="M47.5 41C47.5 48.178 46.1477 54.8234 44.0509 59.5842C43.0007 61.9687 41.8137 63.7668 40.6191 64.9331C39.433 66.0912 38.3818 66.5 37.5 66.5C36.6182 66.5 35.567 66.0912 34.3809 64.9331C33.1863 63.7668 31.9993 61.9687 30.9491 59.5842C28.8523 54.8234 27.5 48.178 27.5 41C27.5 33.8227 28.852 27.4466 30.9298 22.9584C33.1048 18.2605 35.6071 16.5 37.5 16.5C39.3929 16.5 41.8952 18.2605 44.0702 22.9584C46.148 27.4466 47.5 33.8227 47.5 41Z" stroke="#0F3D76" stroke-width="5"/>
</svg>
