<svg width="64" height="64" viewBox="0 0 64 64" fill="none" xmlns="http://www.w3.org/2000/svg">
<path fill-rule="evenodd" clip-rule="evenodd" d="M64 62V30.7869C64 30.1116 63.6533 29.4867 63.1073 29.0895C56.2785 24.1213 55.0575 16.766 55.0122 2.01201C55.0088 0.904883 54.1133 0 53.0062 0H43.1494C42.4794 0 41.8571 0.340171 41.4655 0.883914C37.8481 5.90717 34.0535 7.56118 32 7.56118C29.9465 7.56118 26.1519 5.90717 22.5345 0.883914C22.1429 0.340171 21.5206 0 20.8506 0H10.9938C9.88667 0 8.99117 0.904883 8.98778 2.01201C8.94251 16.766 7.72151 24.1213 0.892668 29.0895C0.346653 29.4867 0 30.1116 0 30.7869V62C0 63.1046 0.895431 64 2 64H62C63.1046 64 64 63.1046 64 62ZM26.3495 28.136C25.6775 28.76 24.8295 29.488 23.8055 30.32L18.4775 34.712C18.1735 34.936 17.9495 35.12 17.8055 35.264C17.6615 35.408 17.5655 35.528 17.5175 35.624C17.4695 35.704 17.4375 35.792 17.4215 35.888L17.2055 37.448C17.1575 37.816 17.3175 38 17.6855 38H29.7335C29.8935 38 29.9975 37.976 30.0455 37.928C30.0935 37.88 30.1255 37.8 30.1415 37.688L30.4295 35.408C30.4775 35.184 30.3575 35.072 30.0695 35.072H22.4375C22.3415 35.072 22.2935 35.04 22.2935 34.976C22.2935 34.912 22.3415 34.84 22.4375 34.76L27.3815 30.968C28.2615 30.28 29.0295 29.624 29.6855 29C30.3415 28.36 30.8455 27.68 31.1975 26.96C31.5655 26.24 31.7495 25.432 31.7495 24.536C31.7495 23.56 31.5095 22.736 31.0295 22.064C30.5495 21.376 29.8855 20.856 29.0375 20.504C28.2055 20.136 27.2295 19.952 26.1095 19.952C24.8295 19.952 23.5815 20.24 22.3655 20.816C21.1655 21.376 20.1415 22.216 19.2935 23.336C19.1655 23.496 19.0935 23.624 19.0775 23.72C19.0775 23.816 19.1095 23.88 19.1735 23.912L21.3335 25.208C21.4615 25.288 21.5655 25.264 21.6455 25.136C22.2375 24.288 22.9015 23.648 23.6375 23.216C24.3895 22.784 25.1095 22.568 25.7975 22.568C26.2935 22.568 26.7255 22.656 27.0935 22.832C27.4775 22.992 27.7735 23.232 27.9815 23.552C28.2055 23.872 28.3175 24.272 28.3175 24.752C28.3175 25.296 28.1575 25.84 27.8375 26.384C27.5175 26.928 27.0215 27.512 26.3495 28.136ZM46.2678 20.312C46.2358 20.232 46.1238 20.192 45.9318 20.192H35.7798C35.4918 20.192 35.3078 20.216 35.2278 20.264C35.1478 20.296 35.0838 20.408 35.0358 20.6L33.2358 28.424C33.2038 28.6 33.1878 28.752 33.1878 28.88C33.2038 29.008 33.2678 29.112 33.3798 29.192L35.1798 30.272C35.2758 30.336 35.3638 30.376 35.4438 30.392C35.5238 30.392 35.6198 30.376 35.7318 30.344C36.0998 30.136 36.4758 29.944 36.8598 29.768C37.2438 29.576 37.6358 29.424 38.0358 29.312C38.4518 29.2 38.8918 29.144 39.3558 29.144C39.9638 29.144 40.4918 29.24 40.9398 29.432C41.3878 29.624 41.7318 29.904 41.9718 30.272C42.2118 30.64 42.3318 31.088 42.3318 31.616C42.3318 32.368 42.1318 33.064 41.7318 33.704C41.3478 34.328 40.8038 34.824 40.0998 35.192C39.3958 35.544 38.5798 35.72 37.6518 35.72C36.7238 35.72 35.9718 35.528 35.3958 35.144C34.8358 34.744 34.3318 34.296 33.8838 33.8C33.7878 33.688 33.6998 33.608 33.6198 33.56C33.5398 33.512 33.4518 33.52 33.3558 33.584L31.5558 34.784C31.4598 34.848 31.4038 34.92 31.3878 35C31.3718 35.064 31.4118 35.176 31.5078 35.336C31.9398 35.912 32.4678 36.424 33.0918 36.872C33.7318 37.304 34.4598 37.64 35.2758 37.88C36.0918 38.12 36.9878 38.24 37.9638 38.24C39.4678 38.24 40.8118 37.968 41.9958 37.424C43.1798 36.864 44.1158 36.072 44.8038 35.048C45.4918 34.008 45.8358 32.784 45.8358 31.376C45.8358 30.32 45.5958 29.44 45.1158 28.736C44.6358 28.032 43.9718 27.504 43.1238 27.152C42.2758 26.784 41.3238 26.6 40.2678 26.6C39.5638 26.6 38.9158 26.68 38.3238 26.84C37.7478 27 37.1398 27.2 36.4998 27.44C36.4198 27.456 36.3638 27.456 36.3318 27.44C36.2998 27.408 36.2918 27.352 36.3078 27.272L37.1718 23.384C37.2198 23.256 37.2678 23.176 37.3158 23.144C37.3638 23.096 37.4518 23.072 37.5798 23.072H45.4278C45.5878 23.072 45.6918 23.048 45.7398 23C45.8038 22.952 45.8518 22.872 45.8838 22.76L46.2918 20.648C46.3238 20.488 46.3158 20.376 46.2678 20.312Z" fill="#0F3D76"/>
</svg>
