<svg width="64" height="64" viewBox="0 0 64 64" fill="none" xmlns="http://www.w3.org/2000/svg">
<path d="M61 31.8691V60C61 60.5523 60.5523 61 60 61H4C3.44771 61 3 60.5523 3 60V31.8691C3 31.5904 3.1552 31.1547 3.64748 30.7528C10.6167 25.0629 11.8249 16.7943 11.9732 4.05343C11.9803 3.44518 12.4663 3 13.0004 3H19.7777C20.0676 3 20.4756 3.15613 20.8186 3.59336C24.5599 8.36304 28.8131 10.5612 32 10.5612C35.1869 10.5612 39.4401 8.36303 43.1814 3.59336C43.5244 3.15613 43.9324 3 44.2223 3H50.9996C51.5337 3 52.0197 3.44518 52.0268 4.05343C52.1751 16.7943 53.3833 25.0629 60.3525 30.7528C60.8448 31.1547 61 31.5904 61 31.8691Z" stroke="#0F3D76" stroke-width="6"/>
<path d="M23.868 32.224C24.972 31.36 25.852 30.632 26.508 30.04C27.164 29.432 27.636 28.888 27.924 28.408C28.228 27.928 28.38 27.448 28.38 26.968C28.38 26.536 28.284 26.176 28.092 25.888C27.916 25.6 27.66 25.384 27.324 25.24C27.004 25.096 26.612 25.024 26.148 25.024C25.476 25.024 24.788 25.248 24.084 25.696C23.38 26.128 22.748 26.776 22.188 27.64C22.108 27.768 21.996 27.792 21.852 27.712L19.26 26.2C19.196 26.168 19.164 26.104 19.164 26.008C19.18 25.896 19.26 25.744 19.404 25.552C20.268 24.384 21.324 23.496 22.572 22.888C23.82 22.264 25.132 21.952 26.508 21.952C27.708 21.952 28.748 22.144 29.628 22.528C30.524 22.912 31.212 23.464 31.692 24.184C32.188 24.888 32.436 25.728 32.436 26.704C32.436 27.584 32.268 28.368 31.932 29.056C31.596 29.744 31.116 30.384 30.492 30.976C29.868 31.568 29.124 32.184 28.26 32.824L23.58 36.256C23.468 36.32 23.412 36.384 23.412 36.448C23.412 36.512 23.46 36.544 23.556 36.544H30.804C31.124 36.544 31.26 36.672 31.212 36.928L30.852 39.664C30.836 39.792 30.796 39.88 30.732 39.928C30.684 39.976 30.572 40 30.396 40H17.892C17.476 40 17.292 39.792 17.34 39.376L17.604 37.552C17.62 37.44 17.652 37.344 17.7 37.264C17.748 37.168 17.852 37.048 18.012 36.904C18.188 36.744 18.46 36.528 18.828 36.256L23.868 32.224ZM46.7053 22.192C46.9133 22.192 47.0413 22.232 47.0893 22.312C47.1373 22.392 47.1373 22.528 47.0893 22.72L46.6333 25.216C46.6013 25.344 46.5533 25.432 46.4893 25.48C46.4253 25.528 46.2973 25.552 46.1053 25.552H38.4493C38.3213 25.552 38.2253 25.576 38.1613 25.624C38.0973 25.672 38.0493 25.768 38.0173 25.912L37.2973 29.08C37.2813 29.144 37.2813 29.192 37.2973 29.224C37.3293 29.256 37.3933 29.256 37.4893 29.224C38.1453 29.016 38.7373 28.848 39.2653 28.72C39.7933 28.592 40.3773 28.528 41.0173 28.528C42.1213 28.528 43.1053 28.72 43.9693 29.104C44.8493 29.472 45.5293 30.016 46.0093 30.736C46.5053 31.456 46.7533 32.352 46.7533 33.424C46.7533 34.848 46.4013 36.072 45.6973 37.096C45.0093 38.104 44.0573 38.88 42.8413 39.424C41.6413 39.968 40.2813 40.24 38.7613 40.24C37.7053 40.24 36.7453 40.112 35.8813 39.856C35.0173 39.584 34.2573 39.216 33.6013 38.752C32.9453 38.288 32.4173 37.76 32.0173 37.168C31.9053 36.992 31.8573 36.864 31.8733 36.784C31.8893 36.688 31.9613 36.608 32.0893 36.544L34.2493 35.128C34.3453 35.064 34.4333 35.064 34.5133 35.128C34.6093 35.176 34.7213 35.272 34.8493 35.416C35.2813 35.912 35.7533 36.352 36.2653 36.736C36.7933 37.104 37.5133 37.288 38.4253 37.288C39.2573 37.288 39.9853 37.128 40.6093 36.808C41.2493 36.488 41.7453 36.056 42.0973 35.512C42.4493 34.952 42.6253 34.344 42.6253 33.688C42.6253 33.24 42.5133 32.856 42.2893 32.536C42.0813 32.2 41.7773 31.944 41.3773 31.768C40.9773 31.592 40.4813 31.504 39.8893 31.504C39.5053 31.504 39.1293 31.552 38.7613 31.648C38.4093 31.728 38.0573 31.848 37.7053 32.008C37.3693 32.168 37.0173 32.344 36.6493 32.536C36.5373 32.584 36.4333 32.608 36.3373 32.608C36.2573 32.592 36.1613 32.552 36.0493 32.488L33.8893 31.216C33.7613 31.136 33.6893 31.024 33.6733 30.88C33.6733 30.72 33.6973 30.544 33.7453 30.352L35.5453 22.648C35.5933 22.44 35.6573 22.312 35.7373 22.264C35.8333 22.216 36.0493 22.192 36.3853 22.192H46.7053Z" fill="#0F3D76"/>
</svg>
