<svg width="28" height="20" viewBox="0 0 28 20" fill="none" xmlns="http://www.w3.org/2000/svg">
<path d="M15.584 19.2C15.072 19.2 14.944 18.9013 15.2 18.304L18.848 11.968C19.4027 10.944 19.232 10.3467 18.336 10.176L17.312 10.112C16.8853 10.0267 16.608 9.96266 16.48 9.92C16.3947 9.83467 16.3733 9.57867 16.416 9.152L17.44 1.856C17.4827 1.51466 17.632 1.216 17.888 0.959999C18.1867 0.661331 18.4853 0.511997 18.784 0.511997H26.784C27.0827 0.511997 27.2747 0.554665 27.36 0.639999C27.4453 0.682666 27.4453 0.853331 27.36 1.152L26.464 8.064C26.4213 8.23467 26.336 8.40533 26.208 8.576C26.1227 8.704 26.0587 8.81067 26.016 8.896L18.848 17.92C18.6347 18.2613 18.2933 18.56 17.824 18.816C17.3973 19.072 16.992 19.2 16.608 19.2H15.584ZM1.184 19.2C0.672 19.2 0.544 18.9013 0.8 18.304L4.512 11.968C5.024 10.944 4.85333 10.3467 4 10.176L2.976 10.112C2.50667 10.0267 2.208 9.96266 2.08 9.92C1.99467 9.83467 1.99467 9.57867 2.08 9.152L3.04 1.856C3.12533 1.51466 3.296 1.216 3.552 0.959999C3.85067 0.661331 4.128 0.511997 4.384 0.511997H12.448C12.704 0.511997 12.8747 0.554665 12.96 0.639999C13.088 0.682666 13.1093 0.853331 13.024 1.152L12.064 8.064C12.0213 8.23467 11.9573 8.40533 11.872 8.576C11.7867 8.704 11.7013 8.81067 11.616 8.896L4.512 17.92C4.29867 18.2613 3.95733 18.56 3.488 18.816C3.06133 19.072 2.656 19.2 2.272 19.2H1.184Z" fill="#0F3D76"/>
</svg>
